<svg xmlns="http://www.w3.org/2000/svg" width="160" height="160" viewBox="0 0 160 160">
    <g fill="none" fill-rule="evenodd">
        <g fill-rule="nonzero">
            <g>
                <g>
                    <g>
                        <g>
                            <path fill="#0087D9" d="M91.75 83.66l-10.657-5.176-11.404-5.877V44.123c0-1.124-.912-2.034-2.037-2.034s-2.038.91-2.038 2.034v28.484L54.19 78.495c-.025.013-.05.026-.073.04l-11.236 6.378c-.978.555-1.32 1.797-.764 2.774.375.66 1.064 1.03 1.773 1.03.341 0 .687-.085 1.005-.266l11.2-6.358 11.557-5.956 11.593 5.975.044.022 10.679 5.186c.287.14.59.206.89.206.755 0 1.48-.422 1.833-1.146.493-1.01.071-2.228-.94-2.72z" transform="translate(-208 -1176) translate(0 1111) translate(157 65) translate(51) translate(13 20)"/>
                            <path fill="#D0DF00" d="M67.408 0C51.164 0 37.995 13.152 37.995 29.37c0 10.967 6.022 20.524 14.94 25.57l4.377-3.288h21.207l3.623 3.147c8.776-5.083 14.675-14.567 14.675-25.428C96.817 13.15 83.652 0 67.408 0z" transform="translate(-208 -1176) translate(0 1111) translate(157 65) translate(51) translate(13 20)"/>
                            <g transform="translate(-208 -1176) translate(0 1111) translate(157 65) translate(51) translate(13 20) translate(0 12.215)">
                                <g fill="#45A400">
                                    <path d="M29.213 28.432c-4.33 2.51-9.362 3.946-14.734 3.946-5.266 0-10.204-1.38-14.479-3.802l.098-3.364c0-2.919 1.506-5.625 3.977-7.17l5.415-3.387V0h10.187v14.655l5.414 3.386c2.476 1.546 3.978 4.252 3.978 7.17l.144 3.22z" transform="translate(52.93 14.152)"/>
                                </g>
                                <ellipse cx="67.514" cy="12.854" fill="#45A400" rx="12.871" ry="12.854"/>
                                <path fill="#0087D9" d="M106.592 51.038c-15.692 0-28.413 12.704-28.413 28.371 0 10.594 5.817 19.825 14.431 24.7l4.23-3.177h20.484l3.5 3.04C129.303 99.062 135 89.902 135 79.41c0-15.667-12.717-28.371-28.408-28.371z"/>
                                <g fill="#79C4F2">
                                    <path d="M28.219 27.465c-4.183 2.425-9.043 3.812-14.233 3.812C8.9 31.277 4.13 29.943 0 27.604l.095-3.25c0-2.819 1.454-5.433 3.841-6.927l5.23-3.27V0h9.841v14.157l5.23 3.27c2.392 1.494 3.843 4.108 3.843 6.927l.139 3.11z" transform="translate(92.605 76.508)"/>
                                </g>
                                <ellipse cx="106.694" cy="75.255" fill="#79C4F2" rx="12.433" ry="12.417"/>
                                <path fill="#79C4F2" d="M0 79.138c0 10.594 5.817 19.825 14.431 24.699l4.229-3.176h20.485l3.5 3.04c8.477-4.91 14.176-14.071 14.176-24.563 0-15.667-12.717-28.371-28.409-28.371C12.721 50.767 0 63.47 0 79.138z"/>
                                <g fill="#0087D9">
                                    <path d="M28.219 27.465c-4.183 2.425-9.043 3.812-14.233 3.812C8.9 31.277 4.13 29.943 0 27.604l.095-3.25c0-2.819 1.454-5.433 3.841-6.927l5.23-3.27V0h9.841v14.157l5.23 3.27c2.392 1.494 3.843 4.108 3.843 6.927l.139 3.11z" transform="translate(14.426 76.237)"/>
                                </g>
                                <ellipse cx="28.514" cy="74.983" fill="#0087D9" rx="12.433" ry="12.417"/>
                            </g>
                        </g>
                    </g>
                </g>
            </g>
        </g>
    </g>
</svg>
