<svg xmlns="http://www.w3.org/2000/svg" width="160" height="160" viewBox="0 0 160 160">
    <g fill="none" fill-rule="evenodd">
        <g>
            <g>
                <g>
                    <g>
                        <g>
                            <path fill="#0087D9" d="M52.507 60.037c11.268-14.57 8.35-28.938 6.25-37.506-2.35-9.58-15.647-7.306-12.928 2.83 2.627 9.793 3.574 17.242.912 31.02l5.766 3.656z" transform="translate(-1123 -1176) translate(0 1111) translate(157 65) translate(966) translate(17 14)"/>
                            <path fill="#79C4F2" d="M66.267 72.396l30.075-25.018c.976-.976.976-2.573 0-3.55l-7.83-7.833c-.975-.976-2.57-.976-3.545 0L59.981 66.102l6.286 6.294z" transform="translate(-1123 -1176) translate(0 1111) translate(157 65) translate(966) translate(17 14)"/>
                            <path fill="#0087D9" d="M106.308 88.661c9.973 3.229 12.913-9.95 3.474-12.787-8.371-2.516-22.395-6.122-37.365 4.106l3.78 6.087c13.376-1.804 20.658-.47 30.111 2.594z" transform="translate(-1123 -1176) translate(0 1111) translate(157 65) translate(966) translate(17 14)"/>
                            <path fill="#79C4F2" d="M13.855 41.901h-5.21v-4.468c0-.608-.513-1.1-1.146-1.1-.63 0-1.143.492-1.143 1.1V41.9H1.145c-.632 0-1.145.493-1.145 1.1 0 .606.513 1.099 1.145 1.099h5.21v4.468c0 .607.513 1.099 1.144 1.099.633 0 1.145-.492 1.145-1.099V44.1h5.211c.633 0 1.145-.493 1.145-1.1 0-.606-.512-1.099-1.145-1.099" transform="translate(-1123 -1176) translate(0 1111) translate(157 65) translate(966) translate(17 14)"/>
                            <path fill="#D0DF00" d="M76.211 77.656c-1.908-2.708-4.107-5.46-6.478-8.14-1.032-1.168-2.1-2.323-3.189-3.456-.014-.022-.035-.043-.057-.057-1.188-1.155-2.399-2.274-3.63-3.365-2.577-2.273-5.21-4.383-7.816-6.236h-.007c-1.467-1.048-2.919-2.003-4.343-2.858-1.074-.65-2.128-1.233-3.16-1.761-7.332-3.72-13.483-4.191-15.768 1.319-.05.114-.448 1.197-.754 1.867l-2.321 6.529-3.901 10.976-5.645 15.888-4.435 12.502-4.947 13.913c-1.218 3.435-.847 5.994.726 7.299 1.302 1.575 3.858 1.945 7.289.727l13.895-4.954 12.486-4.44 15.868-5.653 10.962-3.906 6.52-2.323c.67-.307 1.752-.706 1.866-.756 5.36-2.224 5.054-8.14 1.587-15.239-.612-1.261-1.331-2.558-2.128-3.884-.79-1.311-1.666-2.644-2.613-3.984-.007 0-.007-.008-.007-.008z" transform="translate(-1123 -1176) translate(0 1111) translate(157 65) translate(966) translate(17 14)"/>
                            <path fill="#00B74F" d="M70.986 103.85c-1.523-7.199-8.442-17.085-16.693-25.638-8.542-8.26-18.415-15.189-25.605-16.714l-3.901 10.976c6.35 2.908 13.753 8.504 20.366 14.89 6.378 6.622 11.966 14.034 14.87 20.392l10.963-3.906zM44.156 113.408c-2.996-4.597-6.919-9.394-11.197-13.834-4.435-4.284-9.226-8.211-13.817-11.212l-4.435 12.502c3.082 2.36 6.172 5.032 9.104 7.869 2.834 2.936 5.503 6.03 7.86 9.116l12.485-4.44z" transform="translate(-1123 -1176) translate(0 1111) translate(157 65) translate(966) translate(17 14)"/>
                            <path fill="#97D700" d="M101.626 6.682h-6.253V1.32c0-.73-.615-1.32-1.374-1.32-.757 0-1.372.59-1.372 1.32v5.362h-6.253c-.758 0-1.374.591-1.374 1.32 0 .726.616 1.318 1.374 1.318h6.253v5.362c0 .728.615 1.318 1.372 1.318.76 0 1.374-.59 1.374-1.318V9.32h6.253c.76 0 1.374-.592 1.374-1.319 0-.728-.615-1.32-1.374-1.32" transform="translate(-1123 -1176) translate(0 1111) translate(157 65) translate(966) translate(17 14)"/>
                            <path fill="#D0DF00" d="M119.626 109.682h-6.253v-5.362c0-.73-.615-1.32-1.374-1.32-.757 0-1.372.59-1.372 1.32v5.362h-6.253c-.758 0-1.374.591-1.374 1.32 0 .726.616 1.318 1.374 1.318h6.253v5.362c0 .728.615 1.318 1.372 1.318.76 0 1.374-.59 1.374-1.318v-5.362h6.253c.76 0 1.374-.592 1.374-1.319 0-.728-.615-1.32-1.374-1.32" transform="translate(-1123 -1176) translate(0 1111) translate(157 65) translate(966) translate(17 14)"/>
                        </g>
                    </g>
                </g>
            </g>
        </g>
    </g>
</svg>
