<svg xmlns="http://www.w3.org/2000/svg" width="160" height="160" viewBox="0 0 160 160">
    <g fill="none" fill-rule="evenodd">
        <g>
            <g>
                <g>
                    <g>
                        <g>
                            <g>
                                <path fill="#D0DF00" fill-rule="nonzero" d="M37.496 30.032c3.008-5.161 3.008-7.742 0-7.742-4.51 0-8.434 7.742-8.434 7.742L7.25 37.815c-3.185 1.136-5.311 4.153-5.311 7.534v1.135c0 3.741 3.032 6.774 6.774 6.774h16.346C20.223 57.89 8.38 69.868 5.813 78.42 0 97.774 15.5 95.84 15.5 95.84h21.313s5.812-48.387 5.812-56.13c0-7.741-5.129-9.677-5.129-9.677z" transform="translate(-530 -1176) translate(0 1111) translate(157 65) translate(322) translate(51) translate(24.938 20)"/>
                                <path fill="#FFDAB8" fill-rule="nonzero" d="M113.063 1h-24.88c-2.032 0-4.016.62-5.688 1.775L64.187 15.437c-2.7 1.868-4.312 4.942-4.312 8.225v17.983h19.796L90.175 22.29l25.888-3.87V4c0-1.657-1.344-3-3-3z" transform="translate(-530 -1176) translate(0 1111) translate(157 65) translate(322) translate(51) translate(24.938 20)"/>
                                <g>
                                    <path fill="#79C4F2" d="M15.587 6.264H9.725V1.237C9.725.554 9.148 0 8.436 0 7.726 0 7.15.554 7.15 1.237v5.027H1.288C.578 6.264 0 6.818 0 7.5c0 .682.577 1.236 1.288 1.236H7.15v5.027c0 .682.577 1.236 1.286 1.236.712 0 1.289-.554 1.289-1.236V8.737h5.862c.712 0 1.288-.554 1.288-1.236 0-.683-.576-1.237-1.288-1.237" transform="translate(-530 -1176) translate(0 1111) translate(157 65) translate(322) translate(51) translate(24.938 20) translate(4.125)"/>
                                    <path fill="#D0DF00" d="M113.78 80.872h-7.087v-6.033c0-.82-.696-1.484-1.557-1.484-.858 0-1.554.664-1.554 1.484v6.033h-7.087c-.86 0-1.558.665-1.558 1.484 0 .818.699 1.483 1.558 1.483h7.087v6.033c0 .819.696 1.483 1.554 1.483.86 0 1.557-.664 1.557-1.483v-6.033h7.087c.86 0 1.558-.665 1.558-1.483 0-.819-.697-1.484-1.558-1.484" transform="translate(-530 -1176) translate(0 1111) translate(157 65) translate(322) translate(51) translate(24.938 20) translate(4.125)"/>
                                </g>
                                <path fill="#D0DF00" fill-rule="nonzero" d="M40.584 118H3.978c-1.657 0-3-1.343-3-3 0-.279.04-.557.116-.825l2.781-9.723c1.103-2.756 5.823-5.807 8.794-5.807h20.675c3.209 0 6.421 2.736 7.343 5.807l2.782 9.723c.455 1.593-.467 3.254-2.06 3.71-.268.076-.546.115-.825.115z" transform="translate(-530 -1176) translate(0 1111) translate(157 65) translate(322) translate(51) translate(24.938 20)"/>
                                <path fill="#0087D9" fill-rule="nonzero" d="M59.87 100.397L61.813 78.419 81.188 78.419 83.132 100.419" transform="translate(-530 -1176) translate(0 1111) translate(157 65) translate(322) translate(51) translate(24.938 20)"/>
                                <path fill="#005C99" fill-rule="nonzero" d="M90.42 118.129H52.58c-1.656 0-3-1.343-3-3 0-.36.065-.717.192-1.054l4.29-11.43c1.104-2.755 3.886-3.87 6.857-3.87h20.675c3.209 0 6.421.8 7.344 3.87l4.29 11.43c.582 1.55-.203 3.28-1.754 3.863-.337.126-.695.191-1.055.191z" transform="translate(-530 -1176) translate(0 1111) translate(157 65) translate(322) translate(51) translate(24.938 20)"/>
                                <path fill="#0087D9" fill-rule="nonzero" d="M71.5 41.645H59c-1.657 0-3 1.343-3 3V58c0 1.657 1.343 3 3 3h25c1.657 0 3-1.343 3-3V41.645h-.994" transform="translate(-530 -1176) translate(0 1111) translate(157 65) translate(322) translate(51) translate(24.938 20)"/>
                                <path fill="#005C99" fill-rule="nonzero" d="M61.813 61L81.188 61 81.188 78.419 61.813 78.419z" transform="translate(-530 -1176) translate(0 1111) translate(157 65) translate(322) translate(51) translate(24.938 20)"/>
                                <path fill="#FFB490" fill-rule="nonzero" d="M82.059 21.729l-6.868 1.372c-3.273.654-5.629 3.527-5.629 6.865v4.905h11.626l.87-13.142z" transform="translate(-530 -1176) translate(0 1111) translate(157 65) translate(322) translate(51) translate(24.938 20)"/>
                                <path fill="#45A400" fill-rule="nonzero" d="M23.248 37.774h.004c1.069 0 1.936.867 1.936 1.936s-.867 1.935-1.936 1.935h-.004c-1.069 0-1.936-.866-1.936-1.935 0-1.07.867-1.936 1.936-1.936zM2.903 95.839h42.631c1.604 0 2.904 1.3 2.904 2.903s-1.3 2.903-2.904 2.903H2.904c-1.604 0-2.904-1.3-2.904-2.903s1.3-2.903 2.903-2.903zM40.566 62.935c-.138 1.283-.278 2.577-.421 3.871h-7.21c-1.068 0-1.935-.866-1.935-1.935s.867-1.936 1.935-1.936h7.631zM39.285 74.548c-.147 1.317-.295 2.61-.44 3.871h-5.91c-1.068 0-1.935-.866-1.935-1.935 0-1.07.867-1.936 1.935-1.936h6.35z" transform="translate(-530 -1176) translate(0 1111) translate(157 65) translate(322) translate(51) translate(24.938 20)"/>
                                <path fill="#005C99" fill-rule="nonzero" d="M71.888 41.645c-3.746 0-7.17-3.033-7.17-6.774s3.037-6.774 6.782-6.774c1.862.041 3.64.776 4.987 2.061l-4.6 11.487z" transform="translate(-530 -1176) translate(0 1111) translate(157 65) translate(322) translate(51) translate(24.938 20)"/>
                                <path fill="#232626" fill-rule="nonzero" d="M61.813 61L81.188 61 81.188 64.871 61.813 64.871z" opacity=".2" transform="translate(-530 -1176) translate(0 1111) translate(157 65) translate(322) translate(51) translate(24.938 20)"/>
                                <path fill="#7A3909" fill-rule="nonzero" d="M87 41.645h-6.293l-8.335 5.965s3.003 3.855 8.816 1.274c2.137-.928 4.103-2.21 5.812-3.793v-3.446z" opacity=".2" transform="translate(-530 -1176) translate(0 1111) translate(157 65) translate(322) translate(51) translate(24.938 20)"/>
                                <path fill="#FFDAB8" fill-rule="nonzero" d="M113.063 24.226h-.876c-3.874 9.677-21.312 7.742-21.312 7.742L87 39.71c-2.76 6.895-10.44 7.895-14.628 7.9-.645.003-1.249-.315-1.612-.847-.362-.532-.437-1.21-.198-1.808L81.188 18.42 98.624 6.806h17.438v14.42c0 1.657-1.344 3-3 3z" transform="translate(-530 -1176) translate(0 1111) translate(157 65) translate(322) translate(51) translate(24.938 20)"/>
                            </g>
                        </g>
                    </g>
                </g>
            </g>
        </g>
    </g>
</svg>
