<svg xmlns="http://www.w3.org/2000/svg" width="3436" height="1239" viewBox="0 0 3436 1239"><g transform="translate(4176 -2223)"><rect width="3436" height="1239" transform="translate(-4176 2223)" fill="none"/><g transform="translate(-3443.468 3958.554)"><g transform="translate(-580.67 -1603.014)"><g transform="translate(0 0)"><g transform="translate(90.627)"><path d="M1659.455,2590.9q172.748-70.485,272.241-183.8,123-139.585,145.1-335.81,8.289-62.188,5.526-140.956l-2.758-2.764h-82.917l-2.765,1.38v1.384q2.764,63.56-1.383,110.554-27.632,375.883-374.5,537.57-70.477,33.168-164.448,59.426-2.764,0-2.763,4.147l2.763,1.382h1.377l64.955-11.056Q1598.654,2615.771,1659.455,2590.9Z" transform="translate(-1450.787 -1927.569)" fill="#d2da34"/></g><g transform="translate(0 89.062)"><g transform="translate(0 0)"><path d="M1951.824,2061.983q0-52.511-17.967-113.325l-5.528-5.521h-35.936q-187.948,0-323.39,85.684-62.2,41.456-98.123,93.975-35.936,56.663-35.931,116.093,0,69.089,49.751,134.052,49.746,63.572,134.056,102.265l2.765,1.388,1.378-1.388q146.5-53.9,237.711-164.457Q1951.824,2196.042,1951.824,2061.983Z" transform="translate(-1434.95 -1943.137)" fill="#3bab47"/></g></g><g transform="translate(356.561 201.004)"><g transform="translate(0 0)"><path d="M1497.654,2435.045q55.281,6.91,99.5,6.9,190.721,0,322.011-87.063,64.958-40.072,98.123-93.977,35.932-52.514,35.933-114.707a201.744,201.744,0,0,0-24.875-98.124q-24.872-44.221-71.865-85.69h-2.765l-1.382,2.772q-13.824,174.134-140.966,304.042t-312.338,161.7l-2.76,2.764Z" transform="translate(-1496.274 -1962.388)" fill="#226da8"/></g></g><g transform="translate(1045.546 447.747)"><path d="M1673.067,2105.455l53.894,74.63h46.987L1699.32,2079.2l70.479-74.624h-45.6l-71.863,77.389v-77.389h-37.314v175.509h37.314v-53.9Z" transform="translate(-1615.021 -2004.576)" fill="#226da8"/></g><g transform="translate(1208.615 486.441)"><path d="M1774.352,2094.145v-9.679q0-31.775-15.2-51.129-17.966-22.1-49.747-22.106-29.017,0-46.99,20.729-19.342,20.729-19.349,49.747,0,30.4,20.732,49.748,19.344,19.346,49.749,19.347,33.166,0,55.28-24.874l-22.117-19.346q-15.2,13.819-33.163,13.819-27.636,0-31.784-26.255h92.586m-93.968-23.5q4.143-29.008,29.022-29.015t29.019,29.015Z" transform="translate(-1643.068 -2011.231)" fill="#226da8"/></g><g transform="translate(1359.247 454.657)"><path d="M1753.275,2040.317h-30.4v-34.552h-38.694v34.552h-15.2V2072.1h15.2v63.574q0,40.072,38.694,40.077a67.027,67.027,0,0,0,30.4-6.913v-30.4a39.644,39.644,0,0,1-17.969,4.147q-12.436,0-12.435-12.436V2072.1h30.4Z" transform="translate(-1668.975 -2005.765)" fill="#226da8"/></g><g transform="translate(1461.51 486.441)"><path d="M1817.846,2094.145v-9.679q0-31.775-15.2-51.129-17.971-22.1-49.753-22.106-29.025,0-46.986,20.729-19.355,20.729-19.348,49.747,0,30.4,20.726,49.748,19.349,19.346,49.753,19.347,33.159,0,53.894-24.874l-20.731-19.346q-15.2,13.819-33.162,13.819-27.641,0-31.787-26.255h92.591m-93.971-23.5q4.148-29.008,29.022-29.015t29.017,29.015Z" transform="translate(-1686.563 -2011.231)" fill="#226da8"/></g><g transform="translate(1621.815 486.441)"><path d="M1835.747,2148.046v-87.068q0-49.747-45.6-49.748-22.117,0-38.7,22.106v-19.343h-37.314v134.052h37.314v-74.635q0-27.639,23.494-27.633t23.49,27.633v74.635Z" transform="translate(-1714.133 -2011.231)" fill="#226da8"/></g><g transform="translate(1768.3 487.822)"><path d="M1797.366,2043.253q29.02,0,29.021,24.876v2.759q-12.43-5.52-33.164-5.522-53.9,0-53.9,42.838,0,40.072,46.984,40.075,26.258,0,40.075-16.581v15.2h35.93v-77.383q0-58.04-59.424-58.045-29.023,0-51.129,11.052l8.291,29.023q19.343-8.293,37.312-8.291M1826.387,2093v6.911q0,23.492-29.021,23.5-20.733,0-20.727-16.585,0-19.343,26.253-19.345A51.808,51.808,0,0,1,1826.387,2093Z" transform="translate(-1739.328 -2011.468)" fill="#226da8"/></g><g transform="translate(1918.932 486.441)"><path d="M1904.805,2117.635V2013.994H1867.5v17.965q-17.962-20.739-42.839-20.729t-41.459,16.583q-17.958,16.575-17.963,45.6v1.384q0,27.646,17.963,45.6,16.585,16.581,41.459,16.586t42.839-22.115v6.914q0,35.926-37.312,35.927a86.982,86.982,0,0,1-45.6-12.438l-12.44,29.015a128.06,128.06,0,0,0,58.042,13.824q74.625,0,74.621-70.478m-37.31-44.223v1.384q0,13.816-9.674,22.117-8.291,8.288-22.11,8.288-15.2,0-23.494-8.288-9.668-8.3-9.673-22.117v-1.384q0-30.4,33.167-30.4,13.823,0,22.11,8.3Q1867.5,2059.6,1867.5,2073.412Z" transform="translate(-1765.235 -2011.231)" fill="#226da8"/></g><g transform="translate(2084.764 487.822)"><path d="M1880.821,2068.129v2.759q-12.439-5.52-33.17-5.522-53.9,0-53.9,42.838,0,19.349,13.82,30.4,12.442,9.668,31.78,9.672,27.643,0,40.086-16.581v15.2h37.314v-77.383q0-58.04-59.43-58.045a127.931,127.931,0,0,0-52.511,11.052l9.672,29.023q19.345-8.293,37.31-8.291,29.023,0,29.025,24.876m0,24.871v6.911q0,23.492-29.025,23.5-20.723,0-20.724-16.585,0-19.343,26.253-19.345Q1867,2087.478,1880.821,2093Z" transform="translate(-1793.755 -2011.468)" fill="#226da8"/></g><g transform="translate(2240.924 440.837)"><path d="M1857.929,2185.8v-41.459l13.815-13.819L1906.3,2185.8h42.836l-52.515-81.536,51.134-52.509h-45.6l-44.221,48.361v-96.731h-37.316V2185.8Z" transform="translate(-1820.613 -2003.388)" fill="#226da8"/></g><g transform="translate(2374.971 486.441)"><path d="M1974.952,2094.145v-9.679q0-31.775-15.2-51.129-17.959-22.1-49.75-22.106-29.02,0-46.982,20.729-19.352,20.729-19.351,49.747,0,30.4,20.73,49.748,19.343,19.346,49.75,19.347,33.168,0,53.9-24.874l-20.726-19.346q-15.2,13.819-33.169,13.819-27.633,0-31.783-26.255h92.586M1910,2041.634q24.875,0,29.019,29.015h-58.04Q1885.125,2041.641,1910,2041.634Z" transform="translate(-1843.668 -2011.231)" fill="#226da8"/></g><g transform="translate(2535.276 486.384)"><path d="M1950.014,2051.357h1.377V2011.28q-29.017-1.391-42.839,30.407v-27.646h-37.314v134.043h37.314v-49.745Q1908.552,2051.348,1950.014,2051.357Z" transform="translate(-1871.239 -2011.222)" fill="#226da8"/></g><g transform="translate(2619.574 440.837)"><path d="M1946.539,2003.388h-40.075v33.168h40.075v-33.168m-1.38,48.37h-38.7v128.514q0,15.206-12.44,15.2h-8.286V2224.5l16.579,1.384q42.837,0,42.843-42.843Z" transform="translate(-1885.738 -2003.388)" fill="#226da8"/></g><g transform="translate(2706.636 487.822)"><path d="M1964.279,2011.468a127.949,127.949,0,0,0-52.515,11.052l9.674,29.023q19.343-8.293,37.31-8.291,29.017,0,29.019,24.876v2.759q-12.432-5.52-33.166-5.522-53.9,0-53.889,42.838,0,19.349,13.818,30.4,12.43,9.668,31.781,9.672,27.639,0,40.075-16.581v15.2h37.31v-77.383q0-58.04-59.416-58.045m-27.644,95.354q0-19.343,26.258-19.345,11.052,0,24.874,5.522v6.911q0,23.492-30.4,23.5Q1936.635,2123.408,1936.635,2106.822Z" transform="translate(-1900.712 -2011.468)" fill="#226da8"/></g><g transform="translate(2854.504 487.822)"><path d="M1989.714,2011.468a127.941,127.941,0,0,0-52.513,11.052l9.668,29.023q19.346-8.293,37.314-8.291,27.643,0,27.64,24.876v2.759q-11.052-5.52-31.783-5.522-53.892,0-53.9,42.838,0,19.349,13.82,30.4,12.442,9.668,31.785,9.672,27.639,0,40.075-16.581v15.2h37.309v-77.383q0-58.04-59.418-58.045m-27.642,95.354q0-19.343,26.258-19.345,11.062,0,24.878,5.522v6.911q0,23.492-30.405,23.5Q1962.07,2123.408,1962.072,2106.822Z" transform="translate(-1926.142 -2011.468)" fill="#226da8"/></g><g transform="translate(3009.281 486.441)"><path d="M2075.758,2148.046v-87.068q0-49.747-45.6-49.748-22.114,0-38.692,22.106v-19.343h-38.7v134.052h38.7v-74.635q0-27.639,23.488-27.633t23.5,27.633v74.635Z" transform="translate(-1952.762 -2011.231)" fill="#226da8"/></g><g transform="translate(1045.546 145.103)"><path d="M1787.766,2177.779q20.726-19.346,20.731-52.515,0-19.34-12.44-35.928-12.437-17.962-30.4-22.11v-1.38q12.439-2.768,20.728-16.585a51.9,51.9,0,0,0,9.674-30.4q0-27.645-20.727-46.99t-53.9-19.347h-106.41v247.369h106.41q42.844,0,66.334-22.114M1709,2049.26h-35.929v-46.982H1709q27.638,0,27.634,23.494T1709,2049.26m-35.929,45.6h41.46q31.782,0,31.781,27.638t-31.781,27.64h-41.46Z" transform="translate(-1615.021 -1952.524)" fill="#3bab47"/></g><g transform="translate(1280.476 145.103)"><path d="M1821.263,1974.635q-26.262-22.113-71.864-22.11h-93.971v247.369h59.423V2122.5H1749.4q45.606,0,71.864-22.11,26.251-23.491,26.256-62.192,0-40.069-26.256-63.565m-71.864,33.171q35.929,0,35.933,30.395,0,29.033-35.933,29.026H1714.85v-59.42Z" transform="translate(-1655.427 -1952.524)" fill="#3bab47"/></g><g transform="translate(1446.308 145.103)"><path d="M1896.767,1952.524h-59.421V2092.1q0,56.654-52.516,56.654-29.018,0-42.841-22.11l-58.041,15.206q11.057,27.634,38.695,44.221,27.638,17.962,62.188,17.965,49.746,0,80.153-29.025,31.78-30.4,31.783-84.294Z" transform="translate(-1683.949 -1952.524)" fill="#3bab47"/></g><g transform="translate(1697.821 140.957)"><g transform="translate(0 0)"><path d="M1890.273,1971.15q-26.259-19.346-62.188-19.338-38.695,0-64.953,22.1-26.255,22.12-26.253,51.134,0,46.989,63.568,70.479,17.968,6.91,44.22,16.585,19.343,8.294,19.349,22.111,0,20.729-30.4,20.728-38.7,0-49.754-37.31l-56.656,15.2q24.872,74.621,103.64,74.632,42.843,0,70.476-20.733,26.265-22.113,26.26-55.276,0-49.753-76.005-77.387l-37.312-13.818q-16.59-8.3-16.585-19.351,0-17.969,27.639-17.967,33.166,0,42.843,31.785l56.658-15.2Q1916.528,1990.5,1890.273,1971.15Z" transform="translate(-1727.207 -1951.812)" fill="#3bab47"/></g></g></g></g><g transform="translate(-210.633 -873.95)"><path d="M89.055,137.048a33.236,33.236,0,0,0-4.627-17.687,26.552,26.552,0,0,0-14.533-11.774,36.684,36.684,0,0,0-4.542-1.2l-1.08-.086-.994-.086-1.285-.086-1.268.086a36.48,36.48,0,0,0-9.992,1.542,35.375,35.375,0,0,0-9,4.216,44.125,44.125,0,0,0-3.993,3l-1.714,1.748a12,12,0,0,0-1.371,1.542l-.634-.463v10.043l.086,33.763v.274a34.883,34.883,0,0,0,3.548,2.913c1.337.908,2.811,1.817,4.456,2.742a40.656,40.656,0,0,0,9.358,3.822,43.824,43.824,0,0,0,4.8.823l2.365.171H59.9l1.285-.069a28.628,28.628,0,0,0,9.426-1.834,25.193,25.193,0,0,0,13.711-12.134c2.982-5.484,4.559-12.065,4.73-19.795M74.539,94.167a40.721,40.721,0,0,1,22.057,17.7,47.64,47.64,0,0,1,6.821,25.365v1.457q-.257,15.168-6.358,26.462-7.352,14.062-21.423,18.887a43.323,43.323,0,0,1-13.916,2.571l-1.714.086H58.994l-.72-.1a31.03,31.03,0,0,1-3.633-.274,45.087,45.087,0,0,1-6.907-1.457,45.679,45.679,0,0,1-12.511-5.57,4.008,4.008,0,0,1-.566-.274l-.446-.343q0,9.769-.1,16.676-.077,18.432-.634,33.763H20.4q-.514-15.322-.634-33.763V161.59l.086-33.763.274-33.66H33.749l.1,6.581.257-.274a49.758,49.758,0,0,1,12.545-6.033,55.622,55.622,0,0,1,13.539-2.365h3.428l2.005.171,1.817.189a42.786,42.786,0,0,1,7.1,1.731m67.628,77.38q15.733-9.023,22.074-21.354V140.8a26.764,26.764,0,0,1-2.982.72c-1.765.377-4.97.823-9.649,1.371q-12.88,1.465-17.156,2.571c-5.57,1.44-9.169,3.582-10.8,6.375a10.5,10.5,0,0,0-1.542,5.381v1.371a25.426,25.426,0,0,0,.617,5.827c1.1,4.576,3.359,7.438,6.821,8.586a9.631,9.631,0,0,0,2.811.548h.274a1.146,1.146,0,0,0,.446.086h.908a14.418,14.418,0,0,0,1.542-.086,20.871,20.871,0,0,0,6.633-2.005m36.059-43.429c.069,1.337.1,2.828.1,4.456l.086,4.028q0,11.209-.086,16.247-.1,17.43-.651,32.392h-12.7q-.283-5.476-.463-15.527-8.072,10.412-16.453,14.431a34.154,34.154,0,0,1-10.883,3.273,25.982,25.982,0,0,1-3,.171h-1.457c-.069,0-.566,0-1.542-.069a25.611,25.611,0,0,1-6.17-1.285,23.257,23.257,0,0,1-10.626-7.387,27.638,27.638,0,0,1-5.261-11.037,38.253,38.253,0,0,1-1.1-9.22v-1.92a29.847,29.847,0,0,1,.994-6.2,26.637,26.637,0,0,1,2.537-6.016,24.962,24.962,0,0,1,9.186-8.758,39.316,39.316,0,0,1,10.352-3.942,134.7,134.7,0,0,1,19.246-2.536c3.393-.171,6.273-.463,8.638-.823a29.979,29.979,0,0,0,3.445-.634,6.643,6.643,0,0,0,1.268-.463l.36.36a54.408,54.408,0,0,0-.72-5.741q-1.44-7.121-5.176-10.969a15.986,15.986,0,0,0-9.992-4.73c-.788-.051-1.628-.086-2.536-.086A38.534,38.534,0,0,0,135,107.775a87.777,87.777,0,0,0-13.814,5.93l-6-11.963q17.738-9.486,30.883-9.478a34.374,34.374,0,0,1,3.548.171,28.311,28.311,0,0,1,18.612,8.758q6.453,6.864,8.809,17.807a59.527,59.527,0,0,1,1.2,9.118m82.35-26.188a27.947,27.947,0,0,1,5.45,10.4,36.388,36.388,0,0,1,1.542,10.763V150l-.274,35.768H253.6l-.274-35.751-.086-17.893v-8.843a25.3,25.3,0,0,0-1.011-6.753,13.259,13.259,0,0,0-7.352-8.758,19.594,19.594,0,0,0-6.273-1.731,30.5,30.5,0,0,0-4.542-.377,19.475,19.475,0,0,0-2.536.171A26.177,26.177,0,0,0,219,111.408a44.469,44.469,0,0,0-5.553,5.21c-.84.908-1.662,1.885-2.451,2.914a24.239,24.239,0,0,0-2.074,3.016l-.1-.086.1,17.053q0,33.214-.737,46.085H195.108q-.746-12.854-.72-46.085l.086-22.983.36-23h13.625l.171,8.312,1.645-1.542-.086.086a37.4,37.4,0,0,1,19.521-8.946,38.9,38.9,0,0,1,4.8-.274,51.6,51.6,0,0,1,5.93.36,35.032,35.032,0,0,1,10.712,3.016,26.236,26.236,0,0,1,9.426,7.369m77.551,65.349a45.081,45.081,0,0,0,4.353-2.656l.1-26.822v-7.112q0-7.481.086-15.767a.1.1,0,0,1-.086-.1.091.091,0,0,1-.1-.1,39.743,39.743,0,0,0-3.993-3,33.845,33.845,0,0,0-8.981-4.2,36.087,36.087,0,0,0-9.992-1.543l-1.268-.1-1.285.086-.994.1-1.183.171a31.24,31.24,0,0,0-4.542,1.1,27.135,27.135,0,0,0-14.533,11.774,33.646,33.646,0,0,0-4.542,17.6v1.542q.206,11.594,4.73,19.812a25.375,25.375,0,0,0,13.625,12.237,33.141,33.141,0,0,0,9.529,1.817h2.536c.806,0,1.577-.034,2.382-.086a38.1,38.1,0,0,0,14.156-4.747m18.715,25.913a39.021,39.021,0,0,1-2.913,13.231,32.72,32.72,0,0,1-7.815,11.483,34.616,34.616,0,0,1-11.62,7.3,44.479,44.479,0,0,1-12.528,2.828c-1.457.12-3,.189-4.627.189h-2.451l-1.011-.086a16.159,16.159,0,0,0-1.714-.188,23.991,23.991,0,0,1-3.359-.737,45.36,45.36,0,0,1-11.911-4.919c-1.628-.925-3.359-2.005-5.176-3.291a58.621,58.621,0,0,1-4.9-4.01l8.809-9.666c1.1.908,2.331,1.851,3.736,2.828,1.371.908,2.742,1.731,4.079,2.468a33.2,33.2,0,0,0,8.449,3.273c.771.12,1.474.24,2.091.377l.908.086h1.08a34.661,34.661,0,0,0,4.627-.274,30.8,30.8,0,0,0,8.741-2.108q8.329-3.47,11.328-11.037a26.991,26.991,0,0,0,1.731-8.209V180.579a48.322,48.322,0,0,1-9.889,4.113,47.71,47.71,0,0,1-6.907,1.457c-.908.12-2.125.206-3.633.274h-3.445a44.8,44.8,0,0,1-13.9-2.571q-14.088-4.807-21.423-18.869-6.118-11.414-6.376-26.462V136.79a46.707,46.707,0,0,1,6.821-25.194,40.736,40.736,0,0,1,22.057-17.7,32.5,32.5,0,0,1,6.993-1.714l1.919-.189L316.6,91.8h3.359a56.018,56.018,0,0,1,13.625,2.365,54.853,54.853,0,0,1,9.255,4.028V93.619h13.625q.1,5.476.188,16.436.1,16.144.1,27.73l.171,44.166v8.209c0,1.165-.034,2.159-.086,3.016m67.56-25.913a49.705,49.705,0,0,0,4.353-2.656l.086-26.822v-7.112q0-7.481.086-15.767a.1.1,0,0,1-.086-.1c-.051,0-.086-.034-.086-.1a39.75,39.75,0,0,0-3.993-3,34.2,34.2,0,0,0-9-4.2,35.989,35.989,0,0,0-9.992-1.543l-1.268-.1-1.268.086-.994.1-1.2.171a31.029,31.029,0,0,0-4.525,1.1,27.073,27.073,0,0,0-14.533,11.774,33.485,33.485,0,0,0-4.542,17.6v1.542q.18,11.594,4.713,19.812a25.375,25.375,0,0,0,13.625,12.237,33.262,33.262,0,0,0,9.546,1.817h2.536c.788,0,1.577-.034,2.365-.086a36.034,36.034,0,0,0,4.816-.926,36.421,36.421,0,0,0,9.358-3.822m18.7,25.913a39.018,39.018,0,0,1-2.913,13.231,32.448,32.448,0,0,1-7.8,11.483,34.615,34.615,0,0,1-11.62,7.3,44.6,44.6,0,0,1-12.545,2.828c-1.44.12-3,.189-4.627.189h-2.451l-.994-.086a16.084,16.084,0,0,0-1.731-.188,24.528,24.528,0,0,1-3.359-.737,45.361,45.361,0,0,1-11.911-4.919,58.954,58.954,0,0,1-5.159-3.291,55.972,55.972,0,0,1-4.9-4.01l8.809-9.666c1.08.908,2.331,1.851,3.719,2.828,1.388.908,2.742,1.731,4.079,2.468a33.2,33.2,0,0,0,8.449,3.273c.788.12,1.474.24,2.091.377l.908.086h1.1a35.022,35.022,0,0,0,4.627-.274,30.828,30.828,0,0,0,8.724-2.108q8.355-3.47,11.346-11.037a26.983,26.983,0,0,0,1.714-8.209V180.579a48.32,48.32,0,0,1-9.889,4.113,47.23,47.23,0,0,1-6.907,1.457c-.908.12-2.108.206-3.633.274h-3.445a44.691,44.691,0,0,1-13.882-2.571q-14.088-4.807-21.44-18.869-6.093-11.414-6.358-26.462V136.79a46.7,46.7,0,0,1,6.8-25.194,40.774,40.774,0,0,1,22.074-17.7,32.014,32.014,0,0,1,6.992-1.714l1.885-.189,2.022-.189h3.359a50.259,50.259,0,0,1,22.88,6.393V93.619h13.625c.051,3.65.12,9.135.171,16.436q.1,16.144.1,27.73l.171,44.166v8.209c0,1.165-.017,2.159-.086,3.016m34.586-54.02q0,33.677-.72,46.617H463.6q-.72-12.931-.72-46.617l.1-23.257.343-23.36h13.9l.291,23.36Zm-7.438-88.692a9.187,9.187,0,0,1,9.169,9.135,9.368,9.368,0,0,1-9.169,9.22,9.248,9.248,0,0,1-6.461-15.7A8.975,8.975,0,0,1,470.249,50.464Zm36.3,135.308c-.343-10.454-.583-21.8-.634-34.02V117.715L506,83.781l.274-34.037h13.711l.377,34.037v33.934c0,1.285.017,6.958.086,17.053v16.967q-.1,18.253-.72,34.037h-13.2Zm130.989-22.434q2.005,2.288,10.369,11.037a129.4,129.4,0,0,1,9.8,11.4H639.1q-3.728-3.65-15.082-16.5l-10.986-12.682-12-13.779v8.672q-.077,18.51-.72,34.106H587.15q-.566-15.682-.651-34.106c-.051-4.456-.086-10.129-.086-17.07.069-10.112.086-15.767.086-17.053l.1-34.123.274-34.14h13.8l.274,34.14.086,34.106v15.425c1.337-1.508,3.2-3.6,5.639-6.187q4.164-4.576,6.821-7.4l11.157-12.6,11.363-12.494H653.8L637.914,112.42,626.928,125.1q-10.9,12.34-11.894,13.317l11.243,12.34,11.277,12.58Zm56.488,8.209q15.707-9.023,22.074-21.354V140.8a27.035,27.035,0,0,1-3,.72c-1.765.377-4.97.823-9.632,1.371q-12.905,1.465-17.173,2.571c-5.57,1.44-9.169,3.582-10.8,6.375a10.843,10.843,0,0,0-1.542,5.381v1.371a25.408,25.408,0,0,0,.634,5.827c1.08,4.576,3.359,7.438,6.8,8.586a9.638,9.638,0,0,0,2.828.548h.257a1.238,1.238,0,0,0,.463.086h.908a14.679,14.679,0,0,0,1.543-.086,20.873,20.873,0,0,0,6.633-2.005m36.059-43.429c.051,1.337.086,2.828.086,4.456l.086,4.028c0,7.472-.017,12.888-.086,16.247q-.1,17.43-.634,32.392H716.82c-.171-3.65-.343-8.826-.463-15.527q-8.072,10.412-16.419,14.431a34.473,34.473,0,0,1-10.917,3.273,25.691,25.691,0,0,1-2.982.171h-1.457c-.068,0-.583,0-1.542-.069a25.269,25.269,0,0,1-6.17-1.285,23.167,23.167,0,0,1-10.626-7.387,27.664,27.664,0,0,1-5.279-11.037,38.253,38.253,0,0,1-1.1-9.22v-1.92a29.859,29.859,0,0,1,1.011-6.2,26.635,26.635,0,0,1,2.536-6.016,24.782,24.782,0,0,1,9.169-8.758,39.548,39.548,0,0,1,10.352-3.942,135,135,0,0,1,19.264-2.536c3.393-.171,6.255-.463,8.621-.823a31.064,31.064,0,0,0,3.462-.634,8.005,8.005,0,0,0,1.268-.463l.343.36c-.171-2.177-.411-4.113-.7-5.741q-1.465-7.121-5.193-10.969a15.944,15.944,0,0,0-9.992-4.73c-.771-.051-1.628-.086-2.536-.086a38.726,38.726,0,0,0-10.626,1.645,87.724,87.724,0,0,0-13.8,5.93l-6-11.963q17.713-9.486,30.884-9.478a34.373,34.373,0,0,1,3.548.171,28.311,28.311,0,0,1,18.612,8.758Q726.52,108.058,728.9,119a61.773,61.773,0,0,1,1.182,9.118m126.859-10.592a13.38,13.38,0,0,0-7.267-8.672,19.587,19.587,0,0,0-6.17-1.714,34.391,34.391,0,0,0-4.2-.291,20.16,20.16,0,0,0-2.811.189,26.083,26.083,0,0,0-12.34,5.381,49.012,49.012,0,0,0-5.45,5.107l-2.194,2.656a28.59,28.59,0,0,1,.274,3.822v8.946l-.086,17.6c0,1.542-.086,13.265-.274,35.237H802.992q-.257-26.376-.274-33.129v-2.108l-.086-17.6v-8.758a25.069,25.069,0,0,0-1.011-6.667,13.337,13.337,0,0,0-7.164-8.672,20.513,20.513,0,0,0-6.273-1.714A34.124,34.124,0,0,0,784,106.85a20.158,20.158,0,0,0-2.811.189,26.083,26.083,0,0,0-12.34,5.381,50.632,50.632,0,0,0-5.467,5.107c-.857.977-1.662,1.988-2.451,3.016l-.634.823.1,18.338q0,32.649-.737,45.9H746.778q-.745-13.137-.737-45.9l.1-22.623.343-22.623H759.94l.086,7.2h.1c0-.069.034-.086.086-.086a36.945,36.945,0,0,1,19.161-8.758,38.075,38.075,0,0,1,4.713-.274,55.046,55.046,0,0,1,5.913.343,34.441,34.441,0,0,1,10.54,3.033,26.289,26.289,0,0,1,9.358,7.2c.531.686,1.08,1.405,1.628,2.194,1.268-1.337,2.571-2.571,3.908-3.736a37.516,37.516,0,0,1,19.246-8.758,38.359,38.359,0,0,1,4.73-.274,54.712,54.712,0,0,1,5.9.343,34.3,34.3,0,0,1,10.54,3.033,25.993,25.993,0,0,1,9.358,7.2,28.838,28.838,0,0,1,5.364,10.214,41.285,41.285,0,0,1,1.542,10.677v8.946l-.1,17.6-.257,35.237H858.3q-.36-33.317-.343-35.237V124.194a25.756,25.756,0,0,0-1.028-6.667m52.941,21.629q0,33.677-.72,46.617H895.779q-.72-12.931-.72-46.617l.1-23.257.343-23.36h13.9l.274,23.36.189,23.257Zm-7.455-88.692a9.157,9.157,0,0,1,9.169,9.135,9.306,9.306,0,0,1-9.169,9.22,9.158,9.158,0,0,1-9.066-9.22,9.013,9.013,0,0,1,9.066-9.135Z" transform="translate(-19.764 21.312)" fill="#226da8" fill-rule="evenodd"/><path d="M1396.22,272.7l-.531-.514c-3.5-3.428-10.369-10.969-21.029-23.034l-28.673-33.026v7.1c-.086,17.138-.428,33.077-1.028,47.456l-.051,1.765h-21.835l-.068-1.782c-.514-14.516-.805-30.472-.874-47.422-.086-6.17-.137-14.054-.137-23.7l.137-23.668.12-47.388q0-2.519.377-47.388V79.262h22.828l.017,1.851.377,47.371.137,63.944,4.628-5.039,9.443-10.266,15.493-17.447,16.316-17.961h29.564l-39.967,46.12c-7.953,9-13.111,14.79-15.39,17.293l14.465,15.836,15.665,17.516c1.851,2.108,6.8,7.37,14.328,15.253a183.516,183.516,0,0,1,13.762,16.007l2.211,2.965H1396.22Zm-173.475-50.387c3.188,10.2,8.758,17.584,16.539,21.971a34.858,34.858,0,0,0,13.2,4.336,46.851,46.851,0,0,0,7.335.5l1.714-.1c.737-.034,1.251-.069,1.834-.137a31.8,31.8,0,0,0,3.668-.5,46.816,46.816,0,0,0,13.985-5,73.6,73.6,0,0,0,6.786-3.976c1.063-.857,2.125-1.662,3.085-2.348l2.622-2.279,1.251-1.148,15.664,14.979-1.234,1.337c-1.1,1.2-2.468,2.536-4.148,4.045-1.405,1.234-2.776,2.365-4.164,3.411a88.853,88.853,0,0,1-8.878,5.93,69.645,69.645,0,0,1-20.463,7.935q-2.828.643-5.4,1.028a38.367,38.367,0,0,1-5.827.411h-1.885a76.145,76.145,0,0,1-9.049-.514,59.64,59.64,0,0,1-21.869-7.2,55.279,55.279,0,0,1-17.344-15.459,68.67,68.67,0,0,1-9.991-20.052,90.136,90.136,0,0,1-3.736-21.217l-.12-5.039c0-1.885.034-3.736.12-5.536a74.231,74.231,0,0,1,1.422-10.934,65.485,65.485,0,0,1,8.312-20.995,58.019,58.019,0,0,1,15.63-16.744,59.12,59.12,0,0,1,20.532-9.786,48.352,48.352,0,0,1,5.776-1.045c1.885-.274,2.948-.394,3.136-.394,1.183-.086,2.194-.137,2.9-.137a89.1,89.1,0,0,1,10.934.651,52.4,52.4,0,0,1,21.971,7.884,46.964,46.964,0,0,1,16.247,17.653,67.1,67.1,0,0,1,7.712,25.879c.428,5.4.823,21.68.823,21.68l-1.714.137c-9.734.668-27.679,1.011-53.335,1.011l-26.736-.137c-2.16,0-5.313-.034-9.495-.086a64.664,64.664,0,0,0,2.194,9.974Zm-20.566,37.808a61.052,61.052,0,0,1-11.98,7.044,39.955,39.955,0,0,1-7.267,2.519,35.576,35.576,0,0,1-4.833.686,20.059,20.059,0,0,1-2.125.12h-1.885a31.922,31.922,0,0,1-27.644-18.527c-3.308-7.13-5.09-16.247-5.347-27.1V201.9q-.129-31.569-.137-42.5c-6.324-.12-12-.411-16.864-.874l-1.662-.171V137.019l1.662-.171c4.713-.463,10.471-.754,17.156-.857.171-9.478.411-18.047.72-25.5l.068-1.765h21.32l.086,1.765c.309,7.3.548,15.853.72,25.468,4.353,0,8.4.051,12.1.12.977,0,6.8.137,17.4.394l1.8.034V158.87l-1.8.034q-15.939.386-17.447.394-5.553.1-11.86.12c.068,3.2.1,7.884.1,13.985q0,11.029-.137,28.5v22.657c0,7.455.994,13.282,2.965,17.31a9.792,9.792,0,0,0,8.107,5.69l1.063.12h.514a1.975,1.975,0,0,0,.685-.171,36.819,36.819,0,0,0,3.719-1.114,37.214,37.214,0,0,0,7.524-4.216l1.474-1.028,13.265,17.858-1.474,1.114Zm-87.749-22.606a23.466,23.466,0,0,1-.257,2.434c-.257,1.662-.617,3.342-1.045,5.021a35.654,35.654,0,0,1-11.174,18.664,40.774,40.774,0,0,1-18.733,9.152,51.5,51.5,0,0,1-11.86,1.32,63.025,63.025,0,0,1-6.873-.394,88.758,88.758,0,0,1-32.82-13.334l-1.268-.823,8.055-20.669,1.919,1.3a67.429,67.429,0,0,0,26.393,11.106,39.294,39.294,0,0,0,4.216.223c6.975,0,12.34-1.662,15.9-4.97a13.932,13.932,0,0,0,4.25-7.3,10.549,10.549,0,0,0,.446-2.262c.086-.686.137-1.131.137-1.337l.137-1.165-.017-1.491a22.577,22.577,0,0,0-.343-3.976,13.543,13.543,0,0,0-3.907-7.387,38.354,38.354,0,0,0-9.615-6.513l-6.479-3c-3.736-1.714-6.118-2.811-7.13-3.325-6.821-3.256-12.117-6.6-15.682-9.923a31.483,31.483,0,0,1-10.66-20.652l-.137-2.879v-2.5l.12-1.165c0-.171.034-.754.137-1.714l.514-2.725a33.681,33.681,0,0,1,3.873-10.54,34.953,34.953,0,0,1,16.2-15.065,41.766,41.766,0,0,1,18.167-3.976h1.783a64.839,64.839,0,0,1,18.27,3.77c2.742,1.045,5.484,2.228,8.141,3.513q4.576,2.494,8.021,4.8l1.542,1.045-11.826,17.413-1.491-.857c-7.832-4.559-15.647-6.89-23.171-6.975h-.617a20.663,20.663,0,0,0-9.032,1.954,11.6,11.6,0,0,0-5.827,5.364,12.053,12.053,0,0,0-1.354,3.908l-.24,1.165v.188l-.12,1.251v.908a3.215,3.215,0,0,1,.137.891v.686a10.26,10.26,0,0,0,3.085,5.193c1.92,1.782,5.33,3.856,10.112,6.118l6.787,3.171c2.879,1.354,5.261,2.485,7.2,3.428a59.418,59.418,0,0,1,15.51,10.866,34.742,34.742,0,0,1,10.232,19.367,55.354,55.354,0,0,1,.668,8.672l-.274,4.028Zm-99.231,14.79a60.3,60.3,0,0,1-20.549,15.665,56.3,56.3,0,0,1-24.217,5.621H968.8a55.645,55.645,0,0,1-24.251-5.621,60.554,60.554,0,0,1-20.532-15.682,64.952,64.952,0,0,1-12.46-22.4,85.333,85.333,0,0,1-3.873-24.354V203.6a78.311,78.311,0,0,1,3.1-22.589,58.436,58.436,0,0,1,12.631-22.983,56.7,56.7,0,0,1,21.492-14.808,65.744,65.744,0,0,1,24.508-4.679h.377a65.613,65.613,0,0,1,24.508,4.679,56.79,56.79,0,0,1,21.492,14.79,58.813,58.813,0,0,1,12.631,23.017,78.119,78.119,0,0,1,3.1,22.571v1.885a85.2,85.2,0,0,1-3.873,24.388,64.557,64.557,0,0,1-12.46,22.434ZM901.056,236.953c0,.24-.086,1.131-.257,2.451a50.631,50.631,0,0,1-1.063,5.022,35.614,35.614,0,0,1-11.14,18.647,41,41,0,0,1-18.749,9.152,51.5,51.5,0,0,1-11.86,1.32,62.786,62.786,0,0,1-6.873-.394,88.948,88.948,0,0,1-32.837-13.334l-1.268-.823,8.072-20.669,1.919,1.3a67.427,67.427,0,0,0,26.393,11.106,39.067,39.067,0,0,0,4.216.223c6.975,0,12.34-1.662,15.9-4.953a14.161,14.161,0,0,0,4.25-7.318,11.707,11.707,0,0,0,.446-2.262,12.784,12.784,0,0,0,.12-1.337l.154-1.166-.017-1.508a22.356,22.356,0,0,0-.343-3.942,13.534,13.534,0,0,0-3.908-7.4,39.289,39.289,0,0,0-9.615-6.513l-6.5-3c-3.719-1.714-6.1-2.794-7.113-3.308-6.838-3.256-12.117-6.6-15.7-9.94a31.579,31.579,0,0,1-10.66-20.652c0-.686-.052-1.577-.137-2.879v-2.5l.137-1.148c0-.189.034-.771.137-1.714l.514-2.742a32.476,32.476,0,0,1,3.89-10.54,34.833,34.833,0,0,1,16.179-15.065,42.011,42.011,0,0,1,18.167-3.976h1.782a64.3,64.3,0,0,1,18.27,3.788c2.742,1.028,5.484,2.228,8.123,3.5q4.576,2.494,8.055,4.8l1.542,1.063-11.86,17.4-1.474-.857c-7.832-4.542-15.647-6.89-23.171-6.975h-.617a20.431,20.431,0,0,0-9.032,1.971,11.426,11.426,0,0,0-5.827,5.347,11.663,11.663,0,0,0-1.354,3.908l-.24,1.165v.189l-.137,1.251.017.908a3.22,3.22,0,0,1,.137.891v.685a10.142,10.142,0,0,0,3.085,5.193c1.919,1.782,5.313,3.856,10.112,6.118l6.787,3.171,7.2,3.428a59.419,59.419,0,0,1,15.51,10.866,34.742,34.742,0,0,1,10.231,19.366,57.664,57.664,0,0,1,.652,8.672l-.274,4.028Zm-94.33-17.19c0,1.337-.12,21.44-.377,52.7v.823H784.017v-.823c-.343-29.187-.514-50.816-.514-52.7V183.155a33.368,33.368,0,0,0-1.3-8.706c-1.628-5.261-4.593-8.826-9.1-10.9a26.2,26.2,0,0,0-8.055-2.245,36.441,36.441,0,0,0-9.2-.137c-5.313.651-10.8,3.033-16.3,7.13a18.867,18.867,0,0,0-6.941,13.882v91.108H709.773V182.2a18.887,18.887,0,0,0-6.924-13.882c-5.519-4.113-10.986-6.513-16.316-7.147a36.578,36.578,0,0,0-9.221.137,26.362,26.362,0,0,0-8.038,2.245,16.346,16.346,0,0,0-8.689,9.889c-.12.343-.291.651-.394,1.011a32.684,32.684,0,0,0-1.3,8.706v36.608c0,1.885-.188,23.514-.514,52.7v.823H636.044l-.017-.823c-.257-31.261-.377-51.364-.377-52.7l-.12-36.9a62.528,62.528,0,0,1,.891-9.426,54.253,54.253,0,0,1,1.32-5.878,41.527,41.527,0,0,1,7.781-14.842,37.816,37.816,0,0,1,13.625-10.506,49.174,49.174,0,0,1,15.2-4.353,64.823,64.823,0,0,1,15.219-.12,54.339,54.339,0,0,1,27.678,12.6c1.337,1.148,2.639,2.4,3.942,3.668,1.3-1.285,2.622-2.519,3.942-3.668a54.4,54.4,0,0,1,27.678-12.6,64.82,64.82,0,0,1,15.219.12,49.281,49.281,0,0,1,15.219,4.353,38.4,38.4,0,0,1,13.608,10.506,41.53,41.53,0,0,1,7.781,14.842,59.879,59.879,0,0,1,2.228,15.3Zm-181.308,3.188c-.086,16.007-.377,31.158-.891,45.006l-.051,1.782h-21.2l-.068-1.765c-.223-4.165-.394-9.718-.548-16.556-6.615,7.747-13.437,13.334-20.275,16.624a49.341,49.341,0,0,1-15.716,4.73,38.964,38.964,0,0,1-4.37.257h-2.005l-2.279-.12a37.537,37.537,0,0,1-9.049-1.885A34.322,34.322,0,0,1,533.4,260.193a40.726,40.726,0,0,1-7.712-16.059,56.469,56.469,0,0,1-1.542-13.231v-2.656a43.335,43.335,0,0,1,1.457-9.1,38.484,38.484,0,0,1,3.7-8.809A36.749,36.749,0,0,1,542.725,197.5a56.839,56.839,0,0,1,14.859-5.656c6.118-1.44,15.219-2.639,27.01-3.582a117.386,117.386,0,0,0,11.826-1.114,42.182,42.182,0,0,0,4.627-.857l.7-.223c-.206-2.125-.48-4.062-.788-5.741-1.268-6.17-3.513-10.969-6.684-14.259a20.224,20.224,0,0,0-12.768-6.033c-.994-.069-2.125-.12-3.325-.12a51.822,51.822,0,0,0-14.242,2.228c-4.627,1.371-10.986,4.113-18.852,8.089l-1.645.857-9.94-19.881,1.577-.857c16.59-8.878,31.295-13.385,43.737-13.385a50.457,50.457,0,0,1,5.107.257,41.262,41.262,0,0,1,26.993,12.734c6.17,6.564,10.455,15.168,12.682,25.588a86.229,86.229,0,0,1,1.68,12.94v.034c.1,1.885.137,3.976.137,6.273l.12,5.536c0,10.454-.034,17.978-.12,22.623ZM511.07,102.759a14.02,14.02,0,0,1-10.266,4.216,14.367,14.367,0,0,1-14.448-14.516A14.338,14.338,0,0,1,500.8,77.942a14.019,14.019,0,0,1,10.266,4.216,14.474,14.474,0,0,1,4.182,10.3,14.106,14.106,0,0,1-4.182,10.3Zm2.4,174.915c-1.114,12.717-3.993,23.137-8.569,31.038a41.6,41.6,0,0,1-12.665,13.779,40.673,40.673,0,0,1-8.175,4.37,48.952,48.952,0,0,1-8.792,2.5,58.171,58.171,0,0,1-10.4.908c-2.005,0-4.045-.086-6.084-.257-2.52-.257-5.142-.651-7.884-1.165h-.034c-2.845-.617-5.484-1.3-7.884-2.074l-1.714-.566,6.461-21.132,1.679.394a52.121,52.121,0,0,0,5.227.977c1.594.171,3.5.291,5.639.377h2.057a35.932,35.932,0,0,0,8.278-.857,23.487,23.487,0,0,0,4.233-1.285,24.3,24.3,0,0,0,3.925-2.022,20.724,20.724,0,0,0,5.313-6.2c2.862-4.97,4.7-11.945,5.433-20.738.24-3.308.36-7.575.36-12.648l.12-13.574V195.169c0-1.645.188-21.971.514-54.329V138.99h22.828l.017,1.834.514,54.363.12,67.885c0,5.656-.171,10.575-.514,14.6Zm-93.062-6.033-3.839.12-1.234-.137a45.717,45.717,0,0,1-5.073-.394,70.994,70.994,0,0,1-26.273-9.118c0,7.609-.051,14.225-.12,19.863-.086,17.053-.377,32.837-.874,46.891l-.069,1.8H361.212l-.069-1.8c-.514-14.174-.806-29.958-.874-46.908l.12-93.747.377-46.754.017-1.834h22.554l.1,7.49a71.849,71.849,0,0,1,15.425-7.027,81.031,81.031,0,0,1,19.246-3.376H423l5.484.514a61.855,61.855,0,0,1,10.232,2.5h.017a58.477,58.477,0,0,1,31.6,25.365c6.461,10.54,9.735,22.708,9.735,36.162v2.039c-.257,14.276-3.291,26.907-9.049,37.6-6.993,13.368-17.344,22.486-30.781,27.1a62.464,62.464,0,0,1-19.829,3.651Zm-70.3-66.96c-.257,14.276-3.308,26.907-9.049,37.6-6.907,13.282-17.224,22.366-30.661,26.976a64.454,64.454,0,0,1-19.812,3.77h-4.867a36.758,36.758,0,0,1-5.4-.531,79.976,79.976,0,0,1-9.683-1.937,74.263,74.263,0,0,1-16.607-7.164v.685c-.086,1.748-.12,3.068-.12,4.045V270H232.142l-.086-1.782c-.5-14.139-.805-29.889-.874-46.788l.12-93.627.377-46.754.017-1.834h22.571v1.834q.411,44.988.394,46.754l.1,20.223a67.442,67.442,0,0,1,14.276-6.41,72.157,72.157,0,0,1,19.384-3.376h4.747l2.845.12,2.725.411a48.29,48.29,0,0,1,10.163,2.485,57.358,57.358,0,0,1,31.466,25.228c6.461,10.369,9.735,22.417,9.735,35.785v2.4Zm1049.559-159.7H235.346c-87.852,0-159.713,69.479-159.713,154.383s71.862,154.366,159.713,154.366H1399.7c87.835,0,159.714-69.462,159.714-154.366S1487.534,44.985,1399.682,44.985Z" transform="translate(881.876 -44.985)" fill="#226da8" fill-rule="evenodd"/><path d="M262.5,53.611a44.682,44.682,0,0,0-6.05-1.577L252,51.692l-1.491.1a48.807,48.807,0,0,0-13.471,2.091,45.4,45.4,0,0,0-12,5.6,55.449,55.449,0,0,0-5.364,4.045l-2.3,2.3a18.367,18.367,0,0,0-1.714,1.954l-.514.685.12,57.928a43.811,43.811,0,0,0,4.147,3.359c1.748,1.2,3.771,2.451,6,3.7a45.963,45.963,0,0,0,18.972,6.238l3.222.24,3.256-.12a38.013,38.013,0,0,0,12.58-2.416,33.366,33.366,0,0,0,18.081-16.007c3.959-7.3,6.1-16.264,6.341-26.616V92.773c0-8.98-2.074-16.933-6.17-23.617a35.231,35.231,0,0,0-19.2-15.545m155.617,49.1c-11.808,1.337-19.743,2.519-23.583,3.5-7.2,1.885-11.86,4.576-13.882,8.021a13.521,13.521,0,0,0-1.885,6.633v1.8a34.112,34.112,0,0,0,.84,7.678c1.371,5.724,4.062,9.169,8.226,10.575a12.178,12.178,0,0,0,3.445.668h.737l.394.206,1.028-.086a16.844,16.844,0,0,0,1.919-.1A27.882,27.882,0,0,0,403.93,139c13.968-8.021,23.943-17.6,29.65-28.45v-10.18c-.651.171-1.32.309-1.971.428-2.485.514-6.907,1.148-13.488,1.919M1088.183,80.45c14.293,0,24.508.086,31.106.206a47.983,47.983,0,0,0-4.627-14.054c-4.25-7.884-11.174-12.288-21.149-13.488a46.06,46.06,0,0,0-5.827-.36h-1.645l-1.628.12c-.36,0-.891.051-1.731.12-.926.154-2.04.394-3.222.7a38.064,38.064,0,0,0-12.511,6.033,36.739,36.739,0,0,0-13.985,20.943c3.633-.051,6.461-.086,8.483-.086l26.736-.12ZM800.925,52.875c-11.945.24-21.68,4.456-28.861,12.545-6.307,7.061-9.495,16.916-9.495,29.307v2.279a61.367,61.367,0,0,0,2.811,17.276,44.71,44.71,0,0,0,7.987,14.6,40.751,40.751,0,0,0,12.682,10.18c3.445,1.8,8.415,2.931,14.773,3.342,6.615-.5,11.791-1.628,15.168-3.359a40.581,40.581,0,0,0,12.665-10.163,44.536,44.536,0,0,0,7.987-14.6,60.727,60.727,0,0,0,2.811-17.327V94.727c0-12.391-3.188-22.246-9.478-29.307-7.2-8.072-16.967-12.305-29.067-12.545M132.662,55.12a29.357,29.357,0,0,0-6-1.542l-2.776-.377h-3.359a51.724,51.724,0,0,0-13.2,2.194A41.15,41.15,0,0,0,95.215,61a33.382,33.382,0,0,0-5.193,3.976c-.977.806-1.765,1.543-2.485,2.262-.514.514-.96.994-1.354,1.474v44.457c0,3-.034,8.038-.1,15.082,1.217,1.028,2.434,1.937,3.6,2.776a54.528,54.528,0,0,0,5.879,3.685,48.806,48.806,0,0,0,12.528,5.142,35.118,35.118,0,0,0,6.41,1.1,20.511,20.511,0,0,0,3.136.257h3.531a40.961,40.961,0,0,0,12.443-2.537,32.843,32.843,0,0,0,18.081-16.007c3.959-7.215,6.084-16.127,6.341-26.5V94.538c0-9.152-2.074-17.224-6.17-23.994a35.472,35.472,0,0,0-19.2-15.425" transform="translate(1050.474 63.256)" fill="#226da8" fill-rule="evenodd"/></g></g></g></svg>